<svg width="56" height="56" viewBox="0 0 56 56" fill="none" xmlns="http://www.w3.org/2000/svg">
<path fill-rule="evenodd" clip-rule="evenodd" d="M27.9999 2.33334C13.8249 2.33334 2.33325 13.825 2.33325 28C2.33325 42.175 13.8249 53.6667 27.9999 53.6667C42.1749 53.6667 53.6666 42.175 53.6666 28C53.6666 13.825 42.1749 2.33334 27.9999 2.33334ZM39.1253 23.66C39.3301 23.4258 39.4861 23.1531 39.584 22.8577C39.6818 22.5624 39.7197 22.2505 39.6952 21.9403C39.6708 21.6301 39.5845 21.328 39.4416 21.0516C39.2986 20.7753 39.1019 20.5303 38.8629 20.3311C38.6238 20.132 38.3474 19.9826 38.0498 19.8918C37.7522 19.801 37.4395 19.7707 37.13 19.8026C36.8205 19.8345 36.5205 19.9279 36.2477 20.0775C35.9748 20.227 35.7346 20.4296 35.5413 20.6733L25.5079 32.711L20.3163 27.517C19.8762 27.092 19.2868 26.8568 18.675 26.8621C18.0632 26.8674 17.478 27.1128 17.0453 27.5454C16.6127 27.978 16.3673 28.5633 16.362 29.1751C16.3567 29.7869 16.5919 30.3763 17.0169 30.8163L24.0169 37.8163C24.2462 38.0455 24.5207 38.2243 24.8229 38.3415C25.1251 38.4586 25.4484 38.5116 25.7722 38.4968C26.096 38.4821 26.4132 38.4001 26.7035 38.2561C26.9939 38.112 27.251 37.909 27.4586 37.66L39.1253 23.66Z" fill="#6DC122"/>
</svg>
