<svg width="169" height="37" viewBox="0 0 169 37" fill="none" xmlns="http://www.w3.org/2000/svg">
<g clip-path="url(#clip0_118_93)">
<path d="M71.9653 22.6822C71.9653 24.515 71.3011 25.9795 69.9768 27.0756C68.6508 28.1727 66.9513 28.7211 64.8784 28.7211C63.4802 28.7211 62.0274 28.4683 60.5214 27.9614C59.6115 27.6563 58.7649 27.2752 57.9825 26.8203C57.1406 26.33 56.9073 25.2143 57.4207 24.3865L57.5093 24.2436C58.0289 23.4073 59.1157 23.1794 59.9624 23.6825C61.6804 24.7037 63.3555 25.2136 64.9869 25.2136C65.9023 25.2136 66.6256 25.0026 67.1558 24.5807C67.6856 24.1591 67.9512 23.6227 67.9512 22.9716C67.9512 22.0077 66.674 21.1398 64.1193 20.3687C63.9262 20.2966 63.7812 20.2485 63.685 20.2237C59.6833 19.139 57.6836 17.3312 57.6836 14.8002C57.6836 13.0176 58.3752 11.5892 59.762 10.5165C61.1478 9.44475 62.9497 8.90769 65.1666 8.90769C66.8551 8.90769 68.4742 9.28463 70.0225 10.0395C70.8454 10.4402 71.1523 11.4624 70.7396 12.2792C70.3369 13.0746 69.3776 13.4656 68.5646 13.099C67.3912 12.5702 66.1507 12.3063 64.8419 12.3063C63.4964 12.3063 62.5044 12.6458 61.8615 13.3255C61.8206 13.3684 61.7883 13.4244 61.7684 13.4804C61.3729 14.5965 61.6258 15.36 62.527 15.7771C62.9614 15.9943 63.5699 16.1987 64.3537 16.3911C65.1367 16.5846 65.8295 16.7767 66.4328 16.9705C67.0348 17.1636 67.6197 17.3797 68.1866 17.6209C68.7525 17.8618 69.3617 18.1995 70.0119 18.6332C71.3145 19.5011 71.9653 20.8508 71.9653 22.6822Z" fill="#3A3B3B"/>
<path d="M77.5324 36.0963C76.3926 36.0963 75.323 35.828 74.3238 35.2909C73.3936 34.7917 73.0882 33.5949 73.6043 32.6737C74.0702 31.8421 75.09 31.4415 75.9666 31.8174C76.3792 31.9947 76.7995 32.083 77.2249 32.083C78.1296 32.083 78.8642 31.7569 79.4312 31.1065C79.9971 30.456 80.2806 29.7448 80.2806 28.973C80.2806 28.6603 78.0619 22.9925 73.6235 11.9668C73.0909 10.6439 74.0626 9.19598 75.4896 9.19598C76.3095 9.19598 77.0472 9.69284 77.3558 10.4532L82.5955 23.3701L87.8355 10.4491C88.1423 9.69215 88.8776 9.19633 89.6951 9.19633C91.1217 9.19633 92.0931 10.6422 91.5533 11.9624L83.3538 32.0473C82.7989 33.3001 82.0034 34.2893 80.9685 35.0123C79.9308 35.7349 78.7862 36.0963 77.5324 36.0963Z" fill="#3A3B3B"/>
<path d="M119.365 18.0184V26.4066C119.365 27.5247 118.459 28.4308 117.341 28.4308C116.223 28.4308 115.316 27.5247 115.316 26.4066V11.2212C115.316 10.1031 116.223 9.19598 117.341 9.19598C118.459 9.19598 119.365 10.1031 119.365 11.2212V12.7032C120.14 11.3002 121.262 10.2526 122.734 9.56364C123.738 9.09427 124.833 8.89085 125.941 8.9094C128.03 8.94445 129.724 9.60659 131.026 10.8951C132.364 12.2208 133.033 14.1374 133.033 16.6433V26.4063C133.033 27.5244 132.126 28.4304 131.008 28.4304C129.89 28.4304 128.984 27.5244 128.984 26.4063V17.8734C128.984 14.4755 127.631 12.708 124.928 12.5681C124.48 12.5451 124.033 12.5905 123.594 12.686C120.774 13.3 119.365 15.0772 119.365 18.0184Z" fill="#3A3B3B"/>
<path d="M162.066 22.2122C162.066 23.1293 162.306 23.8577 162.788 24.3999C163.27 24.9415 163.946 25.2132 164.814 25.2132C165.248 25.2132 165.672 25.1078 166.088 24.8968C166.84 24.515 167.75 24.7068 168.175 25.4356L168.296 25.6431C168.718 26.3678 168.462 27.2859 167.746 27.7243C166.66 28.3885 165.496 28.7208 164.253 28.7208C162.53 28.7208 161.059 28.1243 159.842 26.9309C158.625 25.7372 158.017 24.1288 158.017 22.1036V5.68499C158.017 4.73663 158.675 3.91575 159.6 3.7089C160.865 3.4268 162.066 4.3889 162.066 5.68499V9.19598H165.5C166.399 9.19598 167.128 9.92511 167.128 10.8236C167.128 11.7222 166.399 12.4503 165.5 12.4503H162.066V22.2122Z" fill="#3A3B3B"/>
<path d="M145.561 20.5615H154.705C155.125 20.5615 155.465 20.221 155.466 19.8014L155.467 18.8142C155.467 12.9715 150.409 8.3105 144.433 8.97092C139.901 9.47121 136.217 13.155 135.716 17.6858C135.056 23.6629 139.718 28.7211 145.561 28.7211C148.535 28.7211 151.199 27.4079 153.013 25.3311C153.991 24.2113 153.173 22.4541 151.686 22.4541C151.2 22.4541 150.727 22.6496 150.409 23.0176C149.233 24.3759 147.498 25.2363 145.561 25.2363C142.629 25.2363 140.162 23.2698 139.392 20.5862H145.561V20.5615ZM139.385 17.0722C140.145 14.3735 142.619 12.3926 145.561 12.3926C148.503 12.3926 150.976 14.3735 151.737 17.0722H139.385Z" fill="#3A3B3B"/>
<path d="M102.593 8.90803C96.9888 8.90803 92.4463 13.343 92.4463 18.8142C92.4463 24.2855 96.9892 28.7211 102.593 28.7211C108.198 28.7211 112.741 24.2855 112.741 18.8142C112.741 13.343 108.198 8.90803 102.593 8.90803ZM102.593 25.2359C98.9608 25.2359 96.0157 22.3603 96.0157 18.8142C96.0157 15.2675 98.9605 12.3926 102.593 12.3926C106.226 12.3926 109.171 15.2675 109.171 18.8142C109.171 22.3603 106.226 25.2359 102.593 25.2359Z" fill="#3A3B3B"/>
<path fill-rule="evenodd" clip-rule="evenodd" d="M6.71827 34.1436L6.93268 33.7979C8.18822 31.7751 10.8175 31.2243 12.8644 32.441C17.0193 34.9095 21.0701 36.1434 25.0154 36.1434C27.2286 36.1434 28.9768 35.6335 30.2595 34.6133C31.5401 33.5938 32.183 32.2953 32.183 30.7216C32.183 28.3916 29.094 26.2932 22.917 24.4278C22.4493 24.2529 22.0988 24.1374 21.8666 24.0769C12.1902 21.4538 7.35394 17.0831 7.35394 10.9632C7.35394 6.65156 9.02697 3.19693 12.3806 0.602C12.6524 0.391712 12.9331 0.193451 13.2183 0C5.68126 3.73914 0.5 11.5119 0.5 20.4959C0.5 26.2637 2.63655 31.5325 6.15991 35.5551C6.26196 35.0669 6.44304 34.5879 6.71827 34.1436Z" fill="url(#paint0_linear_118_93)"/>
<path fill-rule="evenodd" clip-rule="evenodd" d="M38.9267 4.86513C37.9515 6.78967 35.6329 7.73528 33.6654 6.84774C30.8282 5.56917 27.8285 4.93144 24.6649 4.93144C21.4102 4.93144 19.0115 5.75266 17.4567 7.39717C17.3591 7.50128 17.2797 7.63632 17.2323 7.77102C16.2757 10.4697 16.8873 12.3166 19.0672 13.3241C20.1176 13.8488 21.5886 14.3442 23.4839 14.8095C25.3782 15.2771 27.0537 15.7417 28.5116 16.209C29.9678 16.6766 31.3828 17.1996 32.7527 17.7827C34.121 18.3644 35.5944 19.1812 37.1674 20.2309C40.3149 22.3293 41.8886 25.5929 41.8886 30.0224C41.8886 31.7995 41.6261 33.4303 41.1103 34.9215C44.3131 30.9855 46.2352 25.9654 46.2352 20.4958C46.2352 14.0302 43.551 8.19159 39.237 4.03256C39.1641 4.31604 39.0631 4.59505 38.9267 4.86513Z" fill="url(#paint1_linear_118_93)"/>
</g>
<defs>
<linearGradient id="paint0_linear_118_93" x1="13.4603" y1="24.7669" x2="27.2493" y2="10.978" gradientUnits="userSpaceOnUse">
<stop stop-color="#DC2228"/>
<stop offset="1" stop-color="#5F0000"/>
</linearGradient>
<linearGradient id="paint1_linear_118_93" x1="27.8782" y1="22.5628" x2="42.8254" y2="7.61567" gradientUnits="userSpaceOnUse">
<stop stop-color="#DC2228"/>
<stop offset="1" stop-color="#5F0000"/>
</linearGradient>
<clipPath id="clip0_118_93">
<rect width="168" height="37" fill="white" transform="translate(0.5)"/>
</clipPath>
</defs>
</svg>
